<svg xmlns="http://www.w3.org/2000/svg" xmlns:xlink="http://www.w3.org/1999/xlink" viewBox="0 0 64 64"><defs><style>.cls-1{fill:url(#linear-gradient);}.cls-2{fill:url(#linear-gradient-2);}.cls-3{fill:url(#linear-gradient-3);}.cls-4{fill:url(#linear-gradient-4);}.cls-5{fill:url(#linear-gradient-5);}.cls-6{fill:url(#linear-gradient-6);}.cls-7{fill:url(#linear-gradient-7);}.cls-8{fill:url(#linear-gradient-8);}.cls-9{fill:url(#linear-gradient-9);}.cls-10{fill:url(#linear-gradient-10);}.cls-11{fill:url(#linear-gradient-11);}</style><linearGradient id="linear-gradient" x1="16.77" y1="41.21" x2="30.35" y2="41.21" gradientUnits="userSpaceOnUse"><stop offset="0" stop-color="#4558d6" id="id_126"></stop><stop offset="0.61" stop-color="#071fba" id="id_127"></stop><stop offset="1" stop-color="#090ded" id="id_128"></stop></linearGradient><linearGradient id="linear-gradient-2" x1="19.79" y1="31.8" x2="27.33" y2="31.8" xlink:href="#linear-gradient"></linearGradient><linearGradient id="linear-gradient-3" x1="16.77" y1="30.56" x2="30.35" y2="30.56" xlink:href="#linear-gradient"></linearGradient><linearGradient id="linear-gradient-4" x1="19.79" y1="42.46" x2="27.33" y2="42.46" xlink:href="#linear-gradient"></linearGradient><linearGradient id="linear-gradient-5" x1="19.79" y1="21.15" x2="27.33" y2="21.15" xlink:href="#linear-gradient"></linearGradient><linearGradient id="linear-gradient-6" x1="33.65" y1="30.56" x2="47.23" y2="30.56" xlink:href="#linear-gradient"></linearGradient><linearGradient id="linear-gradient-7" x1="36.67" y1="21.15" x2="44.21" y2="21.15" xlink:href="#linear-gradient"></linearGradient><linearGradient id="linear-gradient-8" x1="3.4" y1="32" x2="60.6" y2="32" xlink:href="#linear-gradient"></linearGradient><linearGradient id="linear-gradient-9" x1="36.67" y1="42.46" x2="44.21" y2="42.46" xlink:href="#linear-gradient"></linearGradient><linearGradient id="linear-gradient-10" x1="36.67" y1="31.8" x2="44.21" y2="31.8" xlink:href="#linear-gradient"></linearGradient><linearGradient id="linear-gradient-11" x1="33.65" y1="41.21" x2="47.23" y2="41.21" xlink:href="#linear-gradient"></linearGradient></defs><g id="Layer_25" data-name="Layer 25"><path class="cls-1" d="M16.77,45.94h1.82V38.38a.6.6,0,0,1,.6-.6h8.74a.6.6,0,0,1,.6.6v7.56h1.82V36.49H16.77Z" id="id_115"></path><path class="cls-2" d="M19.79,28.32v7h7.54v-7h-1.8v2.54a.6.6,0,0,1-.33.53.52.52,0,0,1-.27.07.63.63,0,0,1-.35-.11l-1-.73-1,.73a.6.6,0,0,1-.63,0,.59.59,0,0,1-.32-.53V28.32Z" id="id_116"></path><path class="cls-3" d="M16.77,35.29h1.82V27.72a.6.6,0,0,1,.6-.6h8.74a.6.6,0,0,1,.6.6v7.57h1.82V25.83H16.77Z" id="id_117"></path><path class="cls-4" d="M25.53,41.52a.6.6,0,0,1-.33.53.64.64,0,0,1-.27.07.57.57,0,0,1-.35-.12l-1-.72-1,.72a.62.62,0,0,1-.63,0,.59.59,0,0,1-.32-.53V39h-1.8v7h7.54V39h-1.8Z" id="id_118"></path><path class="cls-5" d="M27.33,17.67h-1.8V20.2a.62.62,0,0,1-.33.54.63.63,0,0,1-.27.06.56.56,0,0,1-.35-.11l-1-.73-1,.73a.62.62,0,0,1-.63,0,.61.61,0,0,1-.32-.54V17.67h-1.8v7h7.54Z" id="id_119"></path><path class="cls-6" d="M33.65,35.29h1.82V27.72a.6.6,0,0,1,.6-.6H44.8a.6.6,0,0,1,.6.6v7.57h1.83V25.83H33.65Z" id="id_120"></path><path class="cls-7" d="M44.21,17.67H42.4V20.2a.61.61,0,0,1-.32.54.67.67,0,0,1-.28.06.53.53,0,0,1-.34-.11l-1-.73-1,.73a.6.6,0,0,1-.62,0,.62.62,0,0,1-.33-.54V17.67H36.67v7h7.54Z" id="id_121"></path><path class="cls-8" d="M32,3.4h0A28.59,28.59,0,0,0,3.4,32h0A28.59,28.59,0,0,0,32,60.6h0A28.59,28.59,0,0,0,60.6,32h0A28.59,28.59,0,0,0,32,3.4ZM50.53,49.93a.6.6,0,0,1-.6.6h-2.1a.6.6,0,0,1-.6-.6V47.14H33.65v2.79a.6.6,0,0,1-.6.6H31a.6.6,0,0,1-.6-.6V47.14H16.77v2.79a.6.6,0,0,1-.6.6h-2.1a.6.6,0,0,1-.6-.6V14.07a.6.6,0,0,1,.6-.6h2.1a.6.6,0,0,1,.6.6V24.63h1.82V17.06a.6.6,0,0,1,.6-.6h8.74a.6.6,0,0,1,.6.6v7.57h1.82V14.07a.6.6,0,0,1,.6-.6h2.1a.6.6,0,0,1,.6.6V24.63h1.82V17.06a.6.6,0,0,1,.6-.6H44.8a.6.6,0,0,1,.6.6v7.57h1.83V14.07a.6.6,0,0,1,.6-.6h2.1a.6.6,0,0,1,.6.6Z" id="id_122"></path><path class="cls-9" d="M42.4,41.52a.59.59,0,0,1-.32.53.68.68,0,0,1-.28.07.54.54,0,0,1-.34-.12l-1-.72-1,.72a.6.6,0,0,1-.95-.48V39H36.67v7h7.54V39H42.4Z" id="id_123"></path><path class="cls-10" d="M36.67,28.32v7h7.54v-7H42.4v2.54a.59.59,0,0,1-.32.53.55.55,0,0,1-.28.07.6.6,0,0,1-.34-.11l-1-.73-1,.73a.58.58,0,0,1-.62,0,.6.6,0,0,1-.33-.53V28.32Z" id="id_124"></path><path class="cls-11" d="M33.65,45.94h1.82V38.38a.6.6,0,0,1,.6-.6H44.8a.6.6,0,0,1,.6.6v7.56h1.83V36.49H33.65Z" id="id_125"></path></g></svg>